<svg xmlns="http://www.w3.org/2000/svg" xmlns:xlink="http://www.w3.org/1999/xlink" viewBox="0 0 100 300" width="100" height="300" preserveAspectRatio="xMidYMid slice" style="width: 100%; height: 100%; transform: translate3d(0px, 0px, 0px); content-visibility: visible;"><defs><clipPath id="__lottie_element_56"><rect width="100" height="300" x="0" y="0"></rect></clipPath><clipPath id="__lottie_element_58"><path d="M0,0 L360,0 L360,640 L0,640z"></path></clipPath></defs><g clip-path="url(#__lottie_element_56)"><g clip-path="url(#__lottie_element_58)" transform="matrix(1,0,0,1,-284,-222)" opacity="1" style="display: block;"><g transform="matrix(1,0,0,1,336.45166015625,300.1187744140625)" opacity="0.06118683760691198" style="display: block;"><g opacity="1" transform="matrix(1,0,0,1,0,0)"><path fill="rgb(99,99,99)" fill-opacity="1" d=" M-1.812000036239624,9.819000244140625 C-1.812000036239624,9.819000244140625 0,11.468999862670898 0,11.468999862670898 C0,11.468999862670898 1.812000036239624,9.831000328063965 1.812000036239624,9.831000328063965 C8.25,3.9809999465942383 12.5,0.13099999725818634 12.5,-4.593999862670898 C12.5,-8.444000244140625 9.475000381469727,-11.468999862670898 5.625,-11.468999862670898 C3.450000047683716,-11.468999862670898 1.3630000352859497,-10.456000328063965 0,-8.855999946594238 C-1.3630000352859497,-10.456000328063965 -3.450000047683716,-11.468999862670898 -5.625,-11.468999862670898 C-9.475000381469727,-11.468999862670898 -12.5,-8.444000244140625 -12.5,-4.593999862670898 C-12.5,0.13099999725818634 -8.25,3.9820001125335693 -1.812000036239624,9.819000244140625z"></path><path stroke-linecap="butt" stroke-linejoin="miter" fill-opacity="0" stroke-miterlimit="4" stroke="rgb(190,190,190)" stroke-opacity="1" stroke-width="1" d=" M-1.812000036239624,9.819000244140625 C-1.812000036239624,9.819000244140625 0,11.468999862670898 0,11.468999862670898 C0,11.468999862670898 1.812000036239624,9.831000328063965 1.812000036239624,9.831000328063965 C8.25,3.9809999465942383 12.5,0.13099999725818634 12.5,-4.593999862670898 C12.5,-8.444000244140625 9.475000381469727,-11.468999862670898 5.625,-11.468999862670898 C3.450000047683716,-11.468999862670898 1.3630000352859497,-10.456000328063965 0,-8.855999946594238 C-1.3630000352859497,-10.456000328063965 -3.450000047683716,-11.468999862670898 -5.625,-11.468999862670898 C-9.475000381469727,-11.468999862670898 -12.5,-8.444000244140625 -12.5,-4.593999862670898 C-12.5,0.13099999725818634 -8.25,3.9820001125335693 -1.812000036239624,9.819000244140625z"></path></g></g><g transform="matrix(1,0,0,1,337.0594482421875,357.6795654296875)" opacity="0.2190230645161992" style="display: block;"><g opacity="1" transform="matrix(1,0,0,1,0,0)"><path fill="rgb(99,99,99)" fill-opacity="1" d=" M-1.812000036239624,9.819000244140625 C-1.812000036239624,9.819000244140625 0,11.468999862670898 0,11.468999862670898 C0,11.468999862670898 1.812000036239624,9.831000328063965 1.812000036239624,9.831000328063965 C8.25,3.9809999465942383 12.5,0.13099999725818634 12.5,-4.593999862670898 C12.5,-8.444000244140625 9.475000381469727,-11.468999862670898 5.625,-11.468999862670898 C3.450000047683716,-11.468999862670898 1.3630000352859497,-10.456000328063965 0,-8.855999946594238 C-1.3630000352859497,-10.456000328063965 -3.450000047683716,-11.468999862670898 -5.625,-11.468999862670898 C-9.475000381469727,-11.468999862670898 -12.5,-8.444000244140625 -12.5,-4.593999862670898 C-12.5,0.13099999725818634 -8.25,3.9820001125335693 -1.812000036239624,9.819000244140625z"></path><path stroke-linecap="butt" stroke-linejoin="miter" fill-opacity="0" stroke-miterlimit="4" stroke="rgb(190,190,190)" stroke-opacity="1" stroke-width="1" d=" M-1.812000036239624,9.819000244140625 C-1.812000036239624,9.819000244140625 0,11.468999862670898 0,11.468999862670898 C0,11.468999862670898 1.812000036239624,9.831000328063965 1.812000036239624,9.831000328063965 C8.25,3.9809999465942383 12.5,0.13099999725818634 12.5,-4.593999862670898 C12.5,-8.444000244140625 9.475000381469727,-11.468999862670898 5.625,-11.468999862670898 C3.450000047683716,-11.468999862670898 1.3630000352859497,-10.456000328063965 0,-8.855999946594238 C-1.3630000352859497,-10.456000328063965 -3.450000047683716,-11.468999862670898 -5.625,-11.468999862670898 C-9.475000381469727,-11.468999862670898 -12.5,-8.444000244140625 -12.5,-4.593999862670898 C-12.5,0.13099999725818634 -8.25,3.9820001125335693 -1.812000036239624,9.819000244140625z"></path></g></g><g transform="matrix(1,0,0,1,333.26751708984375,364.6213684082031)" opacity="0.21306596153854515" style="display: block;"><g opacity="1" transform="matrix(1,0,0,1,0,0)"><path fill="rgb(99,99,99)" fill-opacity="1" d=" M-1.812000036239624,9.819000244140625 C-1.812000036239624,9.819000244140625 0,11.468999862670898 0,11.468999862670898 C0,11.468999862670898 1.812000036239624,9.831000328063965 1.812000036239624,9.831000328063965 C8.25,3.9809999465942383 12.5,0.13099999725818634 12.5,-4.593999862670898 C12.5,-8.444000244140625 9.475000381469727,-11.468999862670898 5.625,-11.468999862670898 C3.450000047683716,-11.468999862670898 1.3630000352859497,-10.456000328063965 0,-8.855999946594238 C-1.3630000352859497,-10.456000328063965 -3.450000047683716,-11.468999862670898 -5.625,-11.468999862670898 C-9.475000381469727,-11.468999862670898 -12.5,-8.444000244140625 -12.5,-4.593999862670898 C-12.5,0.13099999725818634 -8.25,3.9820001125335693 -1.812000036239624,9.819000244140625z"></path><path stroke-linecap="butt" stroke-linejoin="miter" fill-opacity="0" stroke-miterlimit="4" stroke="rgb(190,190,190)" stroke-opacity="1" stroke-width="1" d=" M-1.812000036239624,9.819000244140625 C-1.812000036239624,9.819000244140625 0,11.468999862670898 0,11.468999862670898 C0,11.468999862670898 1.812000036239624,9.831000328063965 1.812000036239624,9.831000328063965 C8.25,3.9809999465942383 12.5,0.13099999725818634 12.5,-4.593999862670898 C12.5,-8.444000244140625 9.475000381469727,-11.468999862670898 5.625,-11.468999862670898 C3.450000047683716,-11.468999862670898 1.3630000352859497,-10.456000328063965 0,-8.855999946594238 C-1.3630000352859497,-10.456000328063965 -3.450000047683716,-11.468999862670898 -5.625,-11.468999862670898 C-9.475000381469727,-11.468999862670898 -12.5,-8.444000244140625 -12.5,-4.593999862670898 C-12.5,0.13099999725818634 -8.25,3.9820001125335693 -1.812000036239624,9.819000244140625z"></path></g></g><g transform="matrix(1,0,0,1,335.6957702636719,402.641357421875)" opacity="0.3866820564517005" style="display: block;"><g opacity="1" transform="matrix(1,0,0,1,0,0)"><path fill="rgb(99,99,99)" fill-opacity="1" d=" M-1.812000036239624,9.819000244140625 C-1.812000036239624,9.819000244140625 0,11.468999862670898 0,11.468999862670898 C0,11.468999862670898 1.812000036239624,9.831000328063965 1.812000036239624,9.831000328063965 C8.25,3.9809999465942383 12.5,0.13099999725818634 12.5,-4.593999862670898 C12.5,-8.444000244140625 9.475000381469727,-11.468999862670898 5.625,-11.468999862670898 C3.450000047683716,-11.468999862670898 1.3630000352859497,-10.456000328063965 0,-8.855999946594238 C-1.3630000352859497,-10.456000328063965 -3.450000047683716,-11.468999862670898 -5.625,-11.468999862670898 C-9.475000381469727,-11.468999862670898 -12.5,-8.444000244140625 -12.5,-4.593999862670898 C-12.5,0.13099999725818634 -8.25,3.9820001125335693 -1.812000036239624,9.819000244140625z"></path><path stroke-linecap="butt" stroke-linejoin="miter" fill-opacity="0" stroke-miterlimit="4" stroke="rgb(190,190,190)" stroke-opacity="1" stroke-width="1" d=" M-1.812000036239624,9.819000244140625 C-1.812000036239624,9.819000244140625 0,11.468999862670898 0,11.468999862670898 C0,11.468999862670898 1.812000036239624,9.831000328063965 1.812000036239624,9.831000328063965 C8.25,3.9809999465942383 12.5,0.13099999725818634 12.5,-4.593999862670898 C12.5,-8.444000244140625 9.475000381469727,-11.468999862670898 5.625,-11.468999862670898 C3.450000047683716,-11.468999862670898 1.3630000352859497,-10.456000328063965 0,-8.855999946594238 C-1.3630000352859497,-10.456000328063965 -3.450000047683716,-11.468999862670898 -5.625,-11.468999862670898 C-9.475000381469727,-11.468999862670898 -12.5,-8.444000244140625 -12.5,-4.593999862670898 C-12.5,0.13099999725818634 -8.25,3.9820001125335693 -1.812000036239624,9.819000244140625z"></path></g></g><g transform="matrix(1,0,0,1,334.6532897949219,454.9367980957031)" opacity="0.6222488709678121" style="display: block;"><g opacity="1" transform="matrix(1,0,0,1,0,0)"><path fill="rgb(99,99,99)" fill-opacity="1" d=" M-1.812000036239624,9.819000244140625 C-1.812000036239624,9.819000244140625 0,11.468999862670898 0,11.468999862670898 C0,11.468999862670898 1.812000036239624,9.831000328063965 1.812000036239624,9.831000328063965 C8.25,3.9809999465942383 12.5,0.13099999725818634 12.5,-4.593999862670898 C12.5,-8.444000244140625 9.475000381469727,-11.468999862670898 5.625,-11.468999862670898 C3.450000047683716,-11.468999862670898 1.3630000352859497,-10.456000328063965 0,-8.855999946594238 C-1.3630000352859497,-10.456000328063965 -3.450000047683716,-11.468999862670898 -5.625,-11.468999862670898 C-9.475000381469727,-11.468999862670898 -12.5,-8.444000244140625 -12.5,-4.593999862670898 C-12.5,0.13099999725818634 -8.25,3.9820001125335693 -1.812000036239624,9.819000244140625z"></path><path stroke-linecap="butt" stroke-linejoin="miter" fill-opacity="0" stroke-miterlimit="4" stroke="rgb(190,190,190)" stroke-opacity="1" stroke-width="1" d=" M-1.812000036239624,9.819000244140625 C-1.812000036239624,9.819000244140625 0,11.468999862670898 0,11.468999862670898 C0,11.468999862670898 1.812000036239624,9.831000328063965 1.812000036239624,9.831000328063965 C8.25,3.9809999465942383 12.5,0.13099999725818634 12.5,-4.593999862670898 C12.5,-8.444000244140625 9.475000381469727,-11.468999862670898 5.625,-11.468999862670898 C3.450000047683716,-11.468999862670898 1.3630000352859497,-10.456000328063965 0,-8.855999946594238 C-1.3630000352859497,-10.456000328063965 -3.450000047683716,-11.468999862670898 -5.625,-11.468999862670898 C-9.475000381469727,-11.468999862670898 -12.5,-8.444000244140625 -12.5,-4.593999862670898 C-12.5,0.13099999725818634 -8.25,3.9820001125335693 -1.812000036239624,9.819000244140625z"></path></g></g><g transform="matrix(1,0,0,1,332.2865295410156,468.2103271484375)" opacity="0.743216612903296" style="display: block;"><g opacity="1" transform="matrix(1,0,0,1,0,0)"><path fill="rgb(99,99,99)" fill-opacity="1" d=" M-1.812000036239624,9.819000244140625 C-1.812000036239624,9.819000244140625 0,11.468999862670898 0,11.468999862670898 C0,11.468999862670898 1.812000036239624,9.831000328063965 1.812000036239624,9.831000328063965 C8.25,3.9809999465942383 12.5,0.13099999725818634 12.5,-4.593999862670898 C12.5,-8.444000244140625 9.475000381469727,-11.468999862670898 5.625,-11.468999862670898 C3.450000047683716,-11.468999862670898 1.3630000352859497,-10.456000328063965 0,-8.855999946594238 C-1.3630000352859497,-10.456000328063965 -3.450000047683716,-11.468999862670898 -5.625,-11.468999862670898 C-9.475000381469727,-11.468999862670898 -12.5,-8.444000244140625 -12.5,-4.593999862670898 C-12.5,0.13099999725818634 -8.25,3.9820001125335693 -1.812000036239624,9.819000244140625z"></path><path stroke-linecap="butt" stroke-linejoin="miter" fill-opacity="0" stroke-miterlimit="4" stroke="rgb(190,190,190)" stroke-opacity="1" stroke-width="1" d=" M-1.812000036239624,9.819000244140625 C-1.812000036239624,9.819000244140625 0,11.468999862670898 0,11.468999862670898 C0,11.468999862670898 1.812000036239624,9.831000328063965 1.812000036239624,9.831000328063965 C8.25,3.9809999465942383 12.5,0.13099999725818634 12.5,-4.593999862670898 C12.5,-8.444000244140625 9.475000381469727,-11.468999862670898 5.625,-11.468999862670898 C3.450000047683716,-11.468999862670898 1.3630000352859497,-10.456000328063965 0,-8.855999946594238 C-1.3630000352859497,-10.456000328063965 -3.450000047683716,-11.468999862670898 -5.625,-11.468999862670898 C-9.475000381469727,-11.468999862670898 -12.5,-8.444000244140625 -12.5,-4.593999862670898 C-12.5,0.13099999725818634 -8.25,3.9820001125335693 -1.812000036239624,9.819000244140625z"></path></g></g><g transform="matrix(1.0772572755813599,0,0,1.0772572755813599,338.00482177734375,495.8904724121094)" opacity="0.9206359677420056" style="display: block;"><g opacity="1" transform="matrix(1,0,0,1,0,0)"><path fill="rgb(99,99,99)" fill-opacity="1" d=" M-1.812000036239624,9.819000244140625 C-1.812000036239624,9.819000244140625 0,11.468999862670898 0,11.468999862670898 C0,11.468999862670898 1.812000036239624,9.831000328063965 1.812000036239624,9.831000328063965 C8.25,3.9809999465942383 12.5,0.13099999725818634 12.5,-4.593999862670898 C12.5,-8.444000244140625 9.475000381469727,-11.468999862670898 5.625,-11.468999862670898 C3.450000047683716,-11.468999862670898 1.3630000352859497,-10.456000328063965 0,-8.855999946594238 C-1.3630000352859497,-10.456000328063965 -3.450000047683716,-11.468999862670898 -5.625,-11.468999862670898 C-9.475000381469727,-11.468999862670898 -12.5,-8.444000244140625 -12.5,-4.593999862670898 C-12.5,0.13099999725818634 -8.25,3.9820001125335693 -1.812000036239624,9.819000244140625z"></path><path stroke-linecap="butt" stroke-linejoin="miter" fill-opacity="0" stroke-miterlimit="4" stroke="rgb(190,190,190)" stroke-opacity="1" stroke-width="1" d=" M-1.812000036239624,9.819000244140625 C-1.812000036239624,9.819000244140625 0,11.468999862670898 0,11.468999862670898 C0,11.468999862670898 1.812000036239624,9.831000328063965 1.812000036239624,9.831000328063965 C8.25,3.9809999465942383 12.5,0.13099999725818634 12.5,-4.593999862670898 C12.5,-8.444000244140625 9.475000381469727,-11.468999862670898 5.625,-11.468999862670898 C3.450000047683716,-11.468999862670898 1.3630000352859497,-10.456000328063965 0,-8.855999946594238 C-1.3630000352859497,-10.456000328063965 -3.450000047683716,-11.468999862670898 -5.625,-11.468999862670898 C-9.475000381469727,-11.468999862670898 -12.5,-8.444000244140625 -12.5,-4.593999862670898 C-12.5,0.13099999725818634 -8.25,3.9820001125335693 -1.812000036239624,9.819000244140625z"></path></g></g></g></g></svg>